# xmcd
#
# Track frame offsets: 
#        150
#        15613
#        34255
#        51167
#        66715
#        82244
#        96534
#        113596
#        131866
#        145974
#        162722
#        178437
#        192604
#        209529
#        227336
#        239772
#        256858
#        275358
#
# Disc length: 3887 seconds
#
# Revision: 0
# Processed by: cddbd v1.4PL0 Copyright (c) Steve Scherf et al.
# Submitted via: ExactAudioCopy v0.95a4
#
DISCID=240f2d12
DTITLE=陈小云 - 爱人跟人走
DYEAR=2003
DGENRE=Pop
TTITLE0=痴情花
TTITLE1=爱人跟人走
TTITLE2=不如甭熟悉
TTITLE3=叫阮要如何
TTITLE4=悲恋的酒杯
TTITLE5=命运青红灯
TTITLE6=感情债
TTITLE7=为着你
TTITLE8=酒女！酒女！
TTITLE9=永远甭提起
TTITLE10=黄昏的故乡
TTITLE11=舞女中的舞女
TTITLE12=留恋有什路用
TTITLE13=怨叹有什路用
TTITLE14=异乡悲恋梦
TTITLE15=要还着要做一摆
TTITLE16=心爱在哪里
TTITLE17=招弟甲罔市
EXTD=
EXTT0=
EXTT1=
EXTT2=
EXTT3=
EXTT4=
EXTT5=
EXTT6=
EXTT7=
EXTT8=
EXTT9=
EXTT10=
EXTT11=
EXTT12=
EXTT13=
EXTT14=
EXTT15=
EXTT16=
EXTT17=
PLAYORDER=
